Coordinates
nRows=9
nColumns=38

# SIMM Motion File Header:
name Coordinates
datacolumns 38
datarows 9
otherdata 1
range 2.33500000000000000000 2.34300000000000000000

Units are S.I. units (second, meters, Newtons, ...)
Angles are in degrees.

endheader
time	pelvis_tilt	pelvis_list	pelvis_rotation	pelvis_tx	pelvis_ty	pelvis_tz	hip_flexion_r	hip_adduction_r	hip_rotation_r	knee_angle_r	ankle_angle_r	subtalar_angle_r	mtp_angle_r	hip_flexion_l	hip_adduction_l	hip_rotation_l	knee_angle_l	ankle_angle_l	subtalar_angle_l	mtp_angle_l	lumbar_extension	lumbar_bending	lumbar_rotation	arm_flex_r	arm_add_r	arm_rot_r	elbow_flex_r	pro_sup_r	wrist_flex_r	wrist_dev_r	arm_flex_l	arm_add_l	arm_rot_l	elbow_flex_l	pro_sup_l	wrist_flex_l	wrist_dev_l
      2.33500000000000000000	     -6.40847636936615480000	     -3.88782822002058030000	     -2.80604953032094520000	      0.85991110912393875000	      0.92115707789199208000	     -0.31459375357040587000	     13.17645071893853600000	      7.88509299246832020000	     -8.85659414902884380000	    -44.33384877656740000000	     28.48678755494550400000	      0.00000000000001200551	     -0.00000000000000694821	     44.73647613383866400000	      0.97206537346503419000	      2.87046495260886920000	   -117.08180298558192000000	     -5.76718440094882650000	      0.00000000000000251585	      0.00000000000000456003	    -10.86443874426931600000	      5.02542387402645300000	     11.06836920157044400000	     -9.96278045759064670000	    -31.35537325458130600000	     -2.36216659067174860000	    104.33204843846823000000	     88.56454250183563200000	     -0.00000000000000525049	      0.00000000000000789767	    -25.12322381107543700000	    -25.26691355458325500000	      1.12512707994015470000	    104.11676664824735000000	    130.35555323852464000000	      0.00000000000000019230	     -0.00000000000000180552
      2.33600000000000030000	     -6.45196843986358550000	     -3.75837113977823070000	     -2.85963894684447070000	      0.85982897058679508000	      0.92161484733161070000	     -0.31444477702503043000	     12.80687597276126700000	      7.76830522128211150000	     -8.74561410748289880000	    -44.03364334983837800000	     28.35937005579896600000	      0.00000000000001233226	     -0.00000000000000741615	     45.10923034142685900000	      1.06107615435493870000	      2.77658855391335150000	   -116.83448563819390000000	     -5.68706699220364430000	      0.00000000000000256389	      0.00000000000000469280	    -10.80914499958081600000	      4.85827978467287020000	     11.22193380400791400000	     -9.79032648269501850000	    -31.43379859782798700000	     -2.34830049389849280000	    104.57500349644245000000	     88.49961878282134400000	     -0.00000000000000532013	      0.00000000000000802854	    -25.30305558825464400000	    -25.30979877298487700000	      1.07997501456097500000	    104.16794626051907000000	    130.12963883141128000000	      0.00000000000000019976	     -0.00000000000000187974
      2.33700000000000020000	     -6.49587745662142520000	     -3.62740404764535060000	     -2.91597276783933030000	      0.85975275025188092000	      0.92208030498596871000	     -0.31428938512929533000	     12.43655349212134600000	      7.65004486041658540000	     -8.63258680846773000000	    -43.72892241704644800000	     28.22186068676906600000	      0.00000000000001265152	     -0.00000000000000787174	     45.47804194744667000000	      1.14667223434087840000	      2.67811334452174110000	   -116.57945425685624000000	     -5.60542938591195660000	      0.00000000000000261203	      0.00000000000000482733	    -10.75283099731349000000	      4.68837056157885270000	     11.37722095960395700000	     -9.61954703694736680000	    -31.51139199263177600000	     -2.33546547865759190000	    104.81780451313396000000	     88.43411698948406800000	     -0.00000000000000538810	      0.00000000000000815939	    -25.48545357924545500000	    -25.35340442895338600000	      1.03170826095448760000	    104.22280939432790000000	    129.89572588696939000000	      0.00000000000000020502	     -0.00000000000000194935
      2.33800000000000010000	     -6.54023717976154910000	     -3.49501540505605530000	     -2.97478049331611590000	      0.85968226982157803000	      0.92255324807388539000	     -0.31412801190304979000	     12.06570849220335100000	      7.53025751846667910000	     -8.51786827956687630000	    -43.41988987840910900000	     28.07409733469029700000	      0.00000000000001295312	     -0.00000000000000830890	     45.84298670711819300000	      1.22894633127587280000	      2.57533165362582530000	   -116.31682525058326000000	     -5.52222733860852610000	      0.00000000000000266008	      0.00000000000000496602	    -10.69544977048325900000	      4.51585997537234630000	     11.53397467955841400000	     -9.45043681619653950000	    -31.58811983526866400000	     -2.32367940519224760000	    105.06032711384267000000	     88.36809520057964600000	     -0.00000000000000545587	      0.00000000000000828990	    -25.67031890321780800000	    -25.39766616422171100000	      0.98036134493130278000	    104.28121989021589000000	    129.65423145814256000000	      0.00000000000000020966	     -0.00000000000000201854
      2.33900000000000000000	     -6.58509356819686080000	     -3.36129307418124150000	     -3.03579031008784250000	      0.85961735705640674000	      0.92303345556709659000	     -0.31396110714232478000	     11.69457946345783700000	      7.40889009837739290000	     -8.40181982189275980000	    -43.10675750288117300000	     27.91591763534760400000	      0.00000000000001324191	     -0.00000000000000865730	     46.20415185541853000000	      1.30800183082773040000	      2.46853590319509840000	   -116.04671239051279000000	     -5.43742986121554320000	      0.00000000000000270922	      0.00000000000000510257	    -10.63694005371344400000	      4.34091449927242400000	     11.69193877223951500000	     -9.28299966596500780000	    -31.66395027180239200000	     -2.31295775183084770000	    105.30245485173688000000	     88.30160292365761200000	     -0.00000000000000552293	      0.00000000000000842106	    -25.85755069046303600000	    -25.44251762008947500000	      0.92597827791994491000	    104.34303478188227000000	    129.40557885041869000000	      0.00000000000000021413	     -0.00000000000000209384
      2.34000000000000030000	     -6.63049981446794500000	     -3.22632360911762860000	     -3.09873035037281760000	      0.85955784865906204000	      0.92352069668983028000	     -0.31378913435139966000	     11.32341143854659600000	      7.28589077993820580000	     -8.28480601684256970000	    -42.78974309477424500000	     27.74715944737290500000	      0.00000000000001355437	     -0.00000000000000898248	     46.56162954357292000000	      1.38395231952323640000	      2.35801662494288200000	   -115.76922572865453000000	     -5.35101878582709570000	      0.00000000000000275968	      0.00000000000000522957	    -10.57723196585899700000	      4.16370187688054030000	     11.85085829831182700000	     -9.11724736747864740000	    -31.73885353347442300000	     -2.30331300225170390000	    105.54407902051456000000	     88.23468147304980400000	     -0.00000000000000559055	      0.00000000000000855149	    -26.04704595194186500000	    -25.48789083405259200000	      0.86861238433315446000	    104.40810516883697000000	    129.15019608718623000000	      0.00000000000000021969	     -0.00000000000000217328
      2.34100000000000020000	     -6.67651293336146970000	     -3.09019155034229250000	     -3.16333008852814720000	      0.85950359256145292000	      0.92401473681163171000	     -0.31361256853965774000	     10.95245115248177800000	      7.16120896025201770000	     -8.16719292753888660000	    -42.46906896324446700000	     27.56766127456305400000	      0.00000000000001383198	     -0.00000000000000923108	     46.91551220273128600000	      1.45692115378088680000	      2.24406058826384000000	   -115.48447081617080000000	     -5.26298840504636440000	      0.00000000000000281151	      0.00000000000000535193	    -10.51625091847120100000	      3.98438975942368060000	     12.01048088301169300000	     -8.95319868570359570000	    -31.81280219835505500000	     -2.29475410706235470000	    105.78509840658830000000	     88.16736445107712000000	     -0.00000000000000565635	      0.00000000000000868108	    -26.23869977521346500000	    -25.53371655723089300000	      0.80832610279939399000	    104.47627701744423000000	    128.88851443945541000000	      0.00000000000000022060	     -0.00000000000000225369
      2.34200000000000010000	     -6.72319104551079680000	     -2.95297886218393260000	     -3.22932161918926130000	      0.85945444970974449000	      0.92451534211682351000	     -0.31343189402022770000	     10.58194309479937600000	      7.03479527193790590000	     -8.04934647092194840000	    -42.14496048957519700000	     27.37726276059774500000	      0.00000000000001408777	     -0.00000000000000942035	     47.26588888374497100000	      1.52704092523383040000	      2.12694922578172640000	   -115.19254812196741000000	     -5.17334506624979260000	      0.00000000000000286417	      0.00000000000000547521	    -10.45392074830075700000	      3.80314454620895370000	     12.17055787128184500000	     -8.79087851360264950000	    -31.88577137472577400000	     -2.28728607102273380000	    106.02541900269564000000	     88.09967839993809900000	     -0.00000000000000572196	      0.00000000000000880912	    -26.43240557903332200000	    -25.57992456575277300000	      0.74519070888243788000	    104.54739194022321000000	    128.62096709144629000000	      0.00000000000000021943	     -0.00000000000000232728
      2.34300000000000000000	     -6.77059176924022310000	     -2.81476466472732940000	     -3.29644068289310790000	      0.85941029491782972000	      0.92502228237081841000	     -0.31324760231819326000	     10.21212701393345400000	      6.90660178050399760000	     -7.93163107961606690000	    -41.81764489114101500000	     27.17580516326773600000	      0.00000000000001433562	     -0.00000000000000959168	     47.61284319898394600000	      1.59445265475023820000	      2.00695765375233170000	   -114.89355283206758000000	     -5.08210657356325330000	      0.00000000000000291625	      0.00000000000000559178	    -10.39016565250912900000	      3.62013064373604010000	     12.33084522041099100000	     -8.63031713362934030000	    -31.95773873768654400000	     -2.28090981372174360000	    106.26495362773935000000	     88.03164381307958300000	     -0.00000000000000578865	      0.00000000000000893585	    -26.62805538202098500000	    -25.62644398972966200000	      0.67928587352716063000	    104.62128795426091000000	    128.34798809511000000000	      0.00000000000000021831	     -0.00000000000000240027
